<svg width="20" height="20" viewBox="0 0 20 20" fill="none" xmlns="http://www.w3.org/2000/svg">
<path d="M10.0007 18.3333L9.44862 18.841C9.59064 18.9955 9.79085 19.0833 10.0007 19.0833C10.2105 19.0833 10.4107 18.9955 10.5527 18.841L10.0007 18.3333ZM14.7147 13.2077L14.1627 12.7L14.7147 13.2077ZM5.28661 13.2077L5.83864 12.7L5.28661 13.2077ZM5.2866 2.95645L4.73457 2.44875L4.73457 2.44875L5.2866 2.95645ZM14.7147 2.95645L15.2667 2.44875V2.44875L14.7147 2.95645ZM10.5527 18.841L15.2667 13.7154L14.1627 12.7L9.44862 17.8256L10.5527 18.841ZM4.73458 13.7154L9.44862 18.841L10.5527 17.8256L5.83864 12.7L4.73458 13.7154ZM4.73457 2.44875C1.86712 5.56656 1.86712 10.5976 4.73458 13.7154L5.83864 12.7C3.4991 10.1562 3.4991 6.00795 5.83864 3.46415L4.73457 2.44875ZM15.2667 2.44875C12.3661 -0.705124 7.63519 -0.705124 4.73457 2.44875L5.83864 3.46415C8.14501 0.956407 11.8563 0.956407 14.1627 3.46415L15.2667 2.44875ZM15.2667 13.7154C18.1342 10.5976 18.1342 5.56656 15.2667 2.44875L14.1627 3.46415C16.5022 6.00795 16.5022 10.1562 14.1627 12.7L15.2667 13.7154ZM11.75 7.50001C11.75 8.46651 10.9665 9.25001 10 9.25001V10.75C11.7949 10.75 13.25 9.29493 13.25 7.50001H11.75ZM10 5.75001C10.9665 5.75001 11.75 6.53351 11.75 7.50001H13.25C13.25 5.70508 11.7949 4.25001 10 4.25001V5.75001ZM8.25 7.50001C8.25 6.53351 9.0335 5.75001 10 5.75001V4.25001C8.20507 4.25001 6.75 5.70508 6.75 7.50001H8.25ZM10 9.25001C9.0335 9.25001 8.25 8.46651 8.25 7.50001H6.75C6.75 9.29493 8.20507 10.75 10 10.75V9.25001Z" fill="#4C73E3"/>
</svg>
